<svg xmlns="http://www.w3.org/2000/svg" width="259.641" height="185.908" viewBox="0 0 259.641 185.908">
  <g id="Gruppe_229" data-name="Gruppe 229" transform="translate(-200.637 -67.107)">
    <g id="Gruppe_228" data-name="Gruppe 228" transform="translate(247.566 67.107)">
      <path id="Pfad_373" data-name="Pfad 373" d="M307.451,136.514c-7.026-13.757-7.28-26.051-2.983-36.855,5-12.566,16.153-23.031,29.936-31.39l1.916-1.161-.013,2.238-.086,15.919c7.424.146,14,1.727,20.564,3.305,9.852,2.368,18.075,4.829,27.684,3.4,8.251-1.22-10.046,16.152-35.51,21.366-16.338,3.347-24.806,12.658-27.268,22.369a24.489,24.489,0,0,0,1.115,15.607,19.512,19.512,0,0,0,10.158,10.441c5.979,2.563,13.931,2.215,23.236-3a66.843,66.843,0,0,0,10.54-1.242q.772-.151,1.543-.317l-.8.637c-14.623,11.672-27.431,13.051-36.686,8.921a25.435,25.435,0,0,1-12.837-13.314,30.409,30.409,0,0,1-1.573-19.234c2.822-11.545,12.564-22.48,31.451-26.349a101.8,101.8,0,0,0,16.287-4.5,41.575,41.575,0,0,0,11-6.087c-4.5-.034-9.689-1.28-15.478-2.669-8.183-1.966-17.609-4.229-27.715-3.634l-1.334.079L330.6,89.7l.071-12.488c-10.338,7.045-18.048,15.658-21.462,25.527-2.671,7.723-2.712,16.257.676,25.459a30.756,30.756,0,0,0-2.045,9.082Z" transform="translate(-301.626 -67.107)" fill="#fff" fill-rule="evenodd"/>
      <path id="Pfad_374" data-name="Pfad 374" d="M377.508,126.639l4.168-4.411,5.889,4.956Z" transform="translate(-342.246 -96.613)" fill="#fff" fill-rule="evenodd"/>
      <path id="Pfad_375" data-name="Pfad 375" d="M349.063,157.037c14.78,6.919,28.28,5.615,40.978.323,12.849-5.357,24.951-14.81,36.726-24.012,3.648-2.85,7.268-5.678,10.877-8.365L418.829,130.9l9.252-21.961-1.411.421A57.941,57.941,0,0,0,417.881,119a106.557,106.557,0,0,0-12.358,22.833c-2.584,1.707-5.194,3.316-7.832,4.787q6.549-18.138,15.051-30.051c6.294-8.794,13.415-15.013,21.378-18.589,8.143-3.656,16.892-4.188,26.446-1.884,5.209,1.033,38.7,17.647,29.687,17.082-19.486-7.168-38.691,7.864-58.1,23.06l-1.942,1.519c-12.049,9.414-24.425,19.083-37.8,24.741-13.509,5.716-27.951,7.315-43.919.421l-.6-.26-.131-.649c-.123-.611-.226-1.233-.306-1.863q-.124-.969-.178-1.9l-.119-2.1Z" transform="translate(-325.999 -81.883)" fill="#fff" fill-rule="evenodd"/>
    </g>
    <path id="Pfad_376" data-name="Pfad 376" d="M215.583,393.408h3.19V354.947H233.72v-2.836H200.636v2.836h14.947v38.461ZM260.8,364.222l-7.326,17.192-3.368,8.508-3.427-8.449-6.793-17.251h-3.132l11.7,28.831-5.376,12.525h3.072l17.783-41.356Zm28.852,26.94c-6.675,0-11.815-5.14-11.815-12.289s5.022-12.289,11.815-12.289c6.617,0,11.934,4.018,11.934,12.23s-5.317,12.348-11.934,12.348ZM277.6,405.578V386.672a13.172,13.172,0,0,0,12.052,7.267c8.213,0,14.83-5.318,14.83-15.125,0-9.394-6.262-14.711-14.179-15.007a13.909,13.909,0,0,0-12.642,7.327v-6.912h-2.837v41.356Zm52.425-11.756c4.667,0,9.748-1.891,12.584-5.614l-2.067-1.654c-2.186,2.895-6.675,4.431-10.516,4.431-6.026,0-11.284-3.958-11.875-10.812h26.291c1.123-11.4-6.2-16.424-14.416-16.424A14.673,14.673,0,0,0,315.2,378.815c0,9.275,6.617,15.007,14.829,15.007Zm-11.875-16.188c.651-7.149,5.849-11.225,11.875-11.225,7.031,0,11.757,4.018,11.816,11.225Zm46.518,15.774v-15.3h20.737V370.9H364.67V359.614h21.918v-7.5H356.872v41.3Zm44.347-29.717c-9.275,0-15.065,6.853-15.065,15.184,0,8.389,5.672,15.183,15.125,15.183s15.183-6.793,15.183-15.183c0-8.33-5.967-15.184-15.243-15.184Zm.059,6.559c4.844,0,7.916,4.253,7.916,8.625,0,4.431-2.659,8.567-7.916,8.567s-7.917-4.136-7.917-8.567c0-4.372,2.717-8.625,7.917-8.625Zm36.253,3.9-5.73-9.867h-8.626v.236l9.57,14.119L430.384,393.23v.178h8.626l6.321-9.749,6.322,9.749h8.625v-.178l-10.162-14.593,9.572-14.119v-.236h-8.627Z" transform="translate(0 -152.562)" fill="#fff" fill-rule="evenodd"/>
  </g>
</svg>
